<svg width="128pt" height="128pt" version="1.1" viewBox="0 0 128 128" xmlns="http://www.w3.org/2000/svg">
 <g fill="#18acd9" style="fill:#b3b3b3">
  <path d="m44.63 32h24.87c0.01 2.09 0 4.17 0.01 6.26 2.98-0.01 5.97 0 8.95 0.01-0.01 8.28 0 16.56-0.01 24.84-1.26 0.28-2.52 0.57-3.78 0.86 0.01-1.73 0-3.46 0-5.19h-8.26c-0.01 2.69-0.01 5.39-0.02 8.08 0.7 0.01 2.1 0.03 2.81 0.04-2.77 2.78-6.49 6.32-5.93 10.43-0.26 0.08-0.79 0.25-1.06 0.33-0.44-2.02-0.38-4.1-0.38-6.15h-8.23v8.19c2.72 0.17 5.43-0.39 8.12-0.36 0.42 4.48 0.8 9.11 3.38 13-10.7-0.01-21.4 0-32.1 0v-6.06h4.34c0.01-16 0-32.01 0.01-48.02 2.42-0.01 4.84 0 7.27 0 0.01-2.09 0-4.17 0.01-6.26m-3.17 14.57v8.08c2.7 0.01 5.4 0.01 8.11 0 0-2.69 0-5.39-0.01-8.09-2.7 0-5.4 0-8.1 0.01m12.14-0.01v8.09c2.75 0.01 5.5 0.01 8.25 0.01 0.01-2.7 0.01-5.4 0.01-8.1h-8.26m12.8 8.1h8.27c0-2.7 0-5.4-0.01-8.1h-8.25c-0.01 2.7-0.01 5.4-0.01 8.1m-24.94 4.13c-0.01 2.69 0 5.39 0 8.09h8.11v-8.09c-2.71-0.01-5.41-0.01-8.11 0m12.14-0.01v8.1h8.26v-8.09c-2.76-0.01-5.51-0.01-8.26-0.01m-12.14 12.73v8.16c2.7 0.01 5.4 0.01 8.1 0 0.01-2.72 0.01-5.44 0-8.15-2.7-0.01-5.4-0.01-8.1-0.01z" style="fill:#b3b3b3"/>
  <path d="m78.36 67.5c6.46-1.18 13.33 2.55 15.82 8.63 2.48 5.73 0.8 12.97-4.12 16.88-6.71 5.71-18.56 3.53-22.26-4.69-4.46-8.26 1.23-19.6 10.56-20.82m0.6 6.18c-0.01 2.17-0.01 4.34-0.02 6.52-2.11 0-4.23 0.01-6.35 0.01v3.64h6.36c0 2.13 0.01 4.26 0 6.39 1.27-0.01 2.53-0.04 3.8-0.11-0.07-2.09-0.06-4.18-0.07-6.27 2.13-0.01 4.25-0.01 6.38-0.03 0.01-1.2 0.01-2.41 0-3.61-2.12-0.01-4.24-0.02-6.37-0.03-0.01-2.17 0-4.34-0.02-6.52-0.93 0.01-2.78 0.01-3.71 0.01z" style="fill:#b3b3b3"/>
 </g>
</svg>
